# xmcd
#
# Track frame offsets: 
#        150
#        13812
#        31436
#        49873
#        67389
#        84846
#        101614
#        105358
#        121359
#        138484
#        156467
#        172868
#        192844
#        217330
#
# Disc length: 4103 seconds
#
# Revision: 1
# Processed by: cddbd v1.5.2PL0 Copyright (c) Steve Scherf et al.
# Submitted via: ExactAudioCopy v0.99pb5
#
DISCID=c710050e
DTITLE=Toby Lightman - Little Things
DYEAR=2004
DGENRE=Rock
TTITLE0=Leave It Inside
TTITLE1=Devils And Angles
TTITLE2=coming back in
TTITLE3=Frightened
TTITLE4=the river
TTITLE5=voices
TTITLE6=little thing
TTITLE7=Front Row
TTITLE8=Everyday
TTITLE9=is this right
TTITLE10=don't wanna know
TTITLE11=Running Away
TTITLE12=Real Love
TTITLE13=Data
EXTD=YEAR: 2004
EXTT0=
EXTT1=
EXTT2=
EXTT3=
EXTT4=
EXTT5=
EXTT6=
EXTT7=
EXTT8=
EXTT9=
EXTT10=
EXTT11=
EXTT12=
EXTT13=
PLAYORDER=
